<?xml version="1.0" encoding="utf-8"?>
<!-- Generator: Adobe Illustrator 16.0.0, SVG Export Plug-In . SVG Version: 6.00 Build 0)  -->
<!DOCTYPE svg PUBLIC "-//W3C//DTD SVG 1.1//EN" "http://www.w3.org/Graphics/SVG/1.1/DTD/svg11.dtd">
<svg version="1.1" id="Layer_1" xmlns="http://www.w3.org/2000/svg" xmlns:xlink="http://www.w3.org/1999/xlink" x="0px" y="0px"
	 width="66px" height="66px" viewBox="0 0 66 66" enable-background="new 0 0 66 66" xml:space="preserve">
<g>
	<g>
		<g>
			<g>
				<polygon fill="#FFC114" points="6.374,37.398 31.377,47.047 32.984,64.01 16.022,62.4 				"/>
				<polyline fill="#FFCD50" points="32.984,64.01 16.022,62.4 6.374,37.398 				"/>
			</g>
			<g>
				<polygon fill="#F9A035" points="16.993,48.018 22.792,63.043 32.985,64.008 32.019,53.816 				"/>
				<polyline fill="#FF9A15" points="32.985,64.008 32.019,53.816 16.993,48.018 				"/>
			</g>
		</g>
		<g>
			<g>
				<polygon fill="#FFC114" points="59.626,37.396 49.979,62.4 33.017,64.008 34.624,47.047 				"/>
				<polyline fill="#FFCD50" points="33.017,64.008 34.624,47.047 59.626,37.396 				"/>
			</g>
			<g>
				<polygon fill="#F9A035" points="49.009,48.016 33.982,53.814 33.017,64.008 43.21,63.043 				"/>
				<polyline fill="#FF9A15" points="33.017,64.008 43.21,63.043 49.009,48.016 				"/>
			</g>
		</g>
	</g>
	<g>
		<g>
			<polygon fill="#EAAD13" points="32.999,1.99 50.88,42.344 32.999,63.967 15.12,42.344 			"/>
			<polyline fill="#FFCD50" points="32.999,63.967 15.12,42.344 32.999,1.99 			"/>
		</g>
		<g>
			<polygon fill="#F9A035" points="33,26.721 22.255,50.971 33,63.967 43.745,50.971 			"/>
			<polyline fill="#EF8A11" points="33,63.967 43.745,50.971 33,26.721 			"/>
		</g>
	</g>
	<g>
		<g>
			<g>
				<polygon fill="#FFC114" points="8.003,11.418 17.971,24.064 13.604,33.324 5.33,27.297 				"/>
				<polyline fill="#FFCD50" points="13.604,33.324 5.33,27.297 8.003,11.418 				"/>
			</g>
			<g>
				<polygon fill="#F9A035" points="10.238,20.16 8.632,29.703 13.604,33.324 16.229,27.76 				"/>
				<polyline fill="#FF9A15" points="13.604,33.324 16.229,27.76 10.238,20.16 				"/>
			</g>
		</g>
		<g>
			<g>
				<polygon fill="#FFC114" points="57.997,11.418 48.03,24.064 52.396,33.324 60.67,27.297 				"/>
				<polyline fill="#FFCD50" points="52.396,33.324 60.67,27.297 57.997,11.418 				"/>
			</g>
			<g>
				<polygon fill="#F9A035" points="55.762,20.16 57.368,29.703 52.396,33.324 49.771,27.76 				"/>
				<polyline fill="#FF9A15" points="52.396,33.324 49.771,27.76 55.762,20.16 				"/>
			</g>
		</g>
	</g>
</g>
</svg>
